<svg width="36" height="44" viewBox="0 0 36 44" fill="none" xmlns="http://www.w3.org/2000/svg">
<path d="M9.07492 27.4992C7.35617 26.8804 5.77492 26.3304 5.56867 24.6117C5.43117 23.4429 6.25617 22.2054 7.49367 21.8617C8.66242 21.5179 10.2437 21.6554 11.6874 22.2054L11.9624 21.5867C11.0687 21.2429 10.1749 21.0367 9.28117 20.9679V19.1804H8.59367V20.9679C8.11242 20.9679 7.69992 21.0367 7.28742 21.1742C5.70617 21.6554 4.67492 23.1679 4.88117 24.6804C5.15617 26.8117 7.14992 27.4992 8.86867 28.1179C9.89992 28.4617 10.9312 28.8054 11.5499 29.4242C12.1687 29.9742 12.4437 30.6617 12.4437 31.4179C12.4437 32.1742 12.0999 32.8617 11.4812 33.4117C10.8624 33.9617 9.96867 34.3054 8.86867 34.3742C8.11242 34.4429 7.21867 34.3054 6.11867 34.0992C5.84367 34.0304 5.56867 34.0304 5.36242 33.8929L5.15617 34.5804C5.43117 34.6492 5.70617 34.7179 6.04992 34.7867C7.01242 34.9929 7.83742 35.0617 8.52492 35.0617H8.59367V36.7804H9.28117V34.9929C10.3812 34.8554 11.2749 34.5117 11.9624 33.8929C12.7187 33.2054 13.1312 32.3804 13.1312 31.4179C13.1312 30.4554 12.7187 29.5617 12.0312 28.8742C11.2749 28.2554 10.1749 27.8429 9.07492 27.4992Z" fill="black"/>
<path d="M17.05 10.1742H29.975C30.1813 10.1742 30.3188 10.0367 30.3188 9.83044C30.3188 9.62419 30.1813 9.48669 29.975 9.48669H17.05C16.8438 9.48669 16.7063 9.62419 16.7063 9.83044C16.7063 10.0367 16.9125 10.1742 17.05 10.1742Z" fill="black"/>
<path d="M17.05 15.0559H29.975C30.1813 15.0559 30.3188 14.9184 30.3188 14.7122C30.3188 14.5059 30.1813 14.3684 29.975 14.3684H17.05C16.8438 14.3684 16.7063 14.5059 16.7063 14.7122C16.7063 14.9184 16.9125 15.0559 17.05 15.0559Z" fill="black"/>
<path d="M17.05 20.0059H29.975C30.1813 20.0059 30.3188 19.8684 30.3188 19.6621C30.3188 19.4559 30.1813 19.3184 29.975 19.3184H17.05C16.8438 19.3184 16.7063 19.4559 16.7063 19.6621C16.7063 19.8684 16.9125 20.0059 17.05 20.0059Z" fill="black"/>
<path d="M17.05 24.8875H29.975C30.1813 24.8875 30.3188 24.75 30.3188 24.5437C30.3188 24.3375 30.1813 24.2 29.975 24.2H17.05C16.8438 24.2 16.7063 24.3375 16.7063 24.5437C16.7063 24.75 16.9125 24.8875 17.05 24.8875Z" fill="black"/>
<path d="M17.05 29.7684H29.975C30.1813 29.7684 30.3188 29.6309 30.3188 29.4247C30.3188 29.2184 30.1813 29.0809 29.975 29.0809H17.05C16.8438 29.0809 16.7063 29.2184 16.7063 29.4247C16.7063 29.6309 16.9125 29.7684 17.05 29.7684Z" fill="black"/>
<path d="M17.05 34.6493H29.975C30.1813 34.6493 30.3188 34.5118 30.3188 34.3055C30.3188 34.0993 30.1813 33.9618 29.975 33.9618H17.05C16.8438 33.9618 16.7063 34.0993 16.7063 34.3055C16.7063 34.5118 16.9125 34.6493 17.05 34.6493Z" fill="black"/>
<path d="M5.15586 14.2992C6.53086 14.2992 7.90586 14.2305 9.21211 13.7492C10.8621 13.1305 12.1684 11.8242 12.8559 10.243C13.4746 8.79924 13.4059 7.14924 13.3371 5.49924C13.3371 5.01799 13.2684 4.60549 13.2684 4.19299C13.2684 3.98674 13.1309 3.84924 12.9246 3.84924C12.7184 3.84924 12.6496 3.91799 12.6496 4.12424C12.6496 4.53674 12.6496 5.01799 12.7184 5.49924C12.7871 7.08049 12.8559 8.66174 12.2371 9.96798C11.6184 11.4117 10.3809 12.5117 8.93711 13.0617C7.49336 13.6117 5.77461 13.6117 4.12461 13.543H3.16211C2.95586 13.543 2.81836 13.6805 2.81836 13.8867C2.81836 14.093 2.95586 14.2305 3.16211 14.2305H4.12461C4.46836 14.2305 4.81211 14.2992 5.15586 14.2992Z" fill="black"/>
<path d="M0 13.9559V34.65C0 39.6 3.9875 43.5875 8.9375 43.5875H26.8816C31.8316 43.5875 35.8191 39.6 35.8191 34.65V8.9375C35.8191 3.9875 31.8316 0 26.8816 0H13.8191C12.7879 0 11.7566 0.4125 11.0691 1.1L1.375 10.6559C0.48125 11.5496 0 12.7184 0 13.9559ZM1.71875 13.9559C1.71875 13.1996 2.0625 12.4434 2.6125 11.8934L12.3066 2.3375C12.7191 1.925 13.2691 1.71875 13.8879 1.71875H26.882C30.8695 1.71875 34.1008 4.95 34.1008 8.9375V34.65C34.1008 38.6375 30.8695 41.8687 26.882 41.8687H8.93789C4.95039 41.8687 1.71914 38.6375 1.71914 34.65L1.71875 13.9559Z" fill="black"/>
</svg>
